<svg width="66" height="65" viewBox="0 0 66 65" fill="none" xmlns="http://www.w3.org/2000/svg">
<path d="M63.4277 3.96861L25.0747 0.00488134C24.5584 -0.0481851 24.0831 0.337752 24.0298 0.854198L23.1993 8.89833L2.0683 11.7605C1.54728 11.8311 1.18204 12.3106 1.25263 12.8317L7.78906 61.1327C7.85787 61.6414 8.33991 62.0188 8.86042 61.9485L14.3228 61.2086V64.0475C14.3228 64.5734 14.7491 64.9997 15.275 64.9997H45.8747C46.1243 64.9997 46.3713 64.8974 46.5477 64.721L54.505 56.7698C54.6814 56.5936 54.7842 56.3455 54.7842 56.0963V53.9908L58.2258 54.3465C58.7519 54.4005 59.218 54.0068 59.2707 53.4972L59.8873 47.5251C60.0097 46.3397 58.1211 46.0906 57.993 47.3295L57.4742 52.3544L54.7841 52.0764V15.3059C54.7841 14.7801 54.3577 14.3538 53.8319 14.3538H42.289L41.3481 7.40092C41.2785 6.88663 40.7912 6.51516 40.2767 6.58512L25.1408 8.63528L25.8262 1.9969L62.285 5.765L58.525 42.1781C58.3973 43.4157 60.2917 43.6086 60.4193 42.3737L64.277 5.01356C64.3309 4.49052 63.9508 4.02269 63.4277 3.96861ZM46.8268 61.7502V57.0486H51.5319L46.8268 61.7502ZM40.3674 14.3538H15.2749C14.749 14.3538 14.3227 14.7801 14.3227 15.3059V22.5554C14.3227 23.8939 16.4273 23.7244 16.227 22.4106V16.2582H52.8798C52.8798 16.2579 52.8798 52.9361 52.8798 52.9366V55.1443H45.8746C45.3488 55.1443 44.9225 55.5706 44.9225 56.0965V63.0955H16.227V27.7779C16.4243 26.4836 14.3227 26.3036 14.3227 27.6327V59.287L9.54838 59.9337L3.26737 13.5198L39.5888 8.59999L40.3674 14.3538Z" fill="black"/>
</svg>
