<svg width="71" height="70" viewBox="0 0 71 70" fill="none" xmlns="http://www.w3.org/2000/svg">
<path d="M14.2439 11.0562H57.3231V47.0595V56.2586H14.2439V11.0562Z" fill="white"/>
<path d="M14.2439 11.0562H57.3231V47.0595V56.2586H14.2439V11.0562Z" fill="#EDEDEA"/>
<path d="M14.2439 11.0562H57.3231V47.0595V56.2586H14.2439V11.0562Z" fill="#EDEDEA"/>
<path d="M20.19 40.9247L51.377 40.9247V32.7911H20.19V40.9247Z" fill="white"/>
<path d="M38.7283 27.2592H51.375V16.938H38.7283V27.2592Z" fill="white"/>
<path d="M20.19 27.2592H32.8367V16.938H20.19V27.2592Z" fill="white"/>
<path d="M14.2439 11.0562H57.3231V47.0595V56.2586H14.2439V11.0562Z" stroke="#333C44" stroke-width="2" stroke-linecap="round" stroke-linejoin="round"/>
<path d="M20.19 40.9247L51.377 40.9247V32.7911H20.19V40.9247Z" stroke="#333C44" stroke-width="2" stroke-linecap="round" stroke-linejoin="round"/>
<path d="M38.7283 27.2592H51.375V16.938H38.7283V27.2592Z" stroke="#333C44" stroke-width="2" stroke-linecap="round" stroke-linejoin="round"/>
<path d="M20.19 27.2592H32.8367V16.938H20.19V27.2592Z" stroke="#333C44" stroke-width="2" stroke-linecap="round" stroke-linejoin="round"/>
<path d="M19.4238 3.7644H64.6147V39.7677V49.4375" stroke="#333C44" stroke-width="2" stroke-linecap="round" stroke-linejoin="round"/>
<path d="M27.4136 46.1359L8.29388 51.5492L14.2244 54.9481L6.91138 62.4342L10.8275 66.2356L18.1989 58.9789L21.6542 65.0261L27.4136 46.1359Z" fill="white"/>
<path d="M27.4136 46.1359L8.29388 51.5492L14.2244 54.9481L6.91138 62.4342L10.8275 66.2356L18.1989 58.9789L21.6542 65.0261L27.4136 46.1359Z" stroke="#333C44" stroke-width="2" stroke-linecap="round" stroke-linejoin="round"/>
</svg>
