<svg width="53" height="54" viewBox="0 0 53 54" fill="none" xmlns="http://www.w3.org/2000/svg">
<path d="M27.1217 52.7121C27.1188 52.8599 27.06 53.001 26.9573 53.1072C26.8546 53.2134 26.7155 53.2768 26.568 53.2847V53.2847H26.524C26.3776 53.2771 26.2396 53.2135 26.1387 53.1071C26.0377 53.0007 25.9814 52.8596 25.9814 52.7129C25.9814 52.5663 26.0377 52.4252 26.1387 52.3188C26.2396 52.2124 26.3776 52.1488 26.524 52.1411H26.546H26.568C26.7154 52.1486 26.8544 52.2117 26.9572 52.3177C27.06 52.4236 27.1187 52.5646 27.1217 52.7121V52.7121ZM22.7151 44.3272C22.5134 44.3272 22.3163 44.387 22.1486 44.4991C21.9809 44.6111 21.8502 44.7704 21.7731 44.9567C21.6959 45.143 21.6757 45.348 21.715 45.5458C21.7544 45.7436 21.8515 45.9253 21.9941 46.0679C22.1367 46.2105 22.3184 46.3076 22.5162 46.347C22.714 46.3863 22.919 46.3661 23.1053 46.289C23.2917 46.2118 23.4509 46.0811 23.563 45.9134C23.675 45.7457 23.7348 45.5486 23.7348 45.3469C23.735 45.2129 23.7088 45.0802 23.6576 44.9564C23.6064 44.8326 23.5313 44.7201 23.4366 44.6254C23.3419 44.5307 23.2294 44.4556 23.1056 44.4044C22.9818 44.3532 22.8491 44.327 22.7151 44.3272V44.3272ZM26.5695 44.1201H26.524C26.1987 44.1201 25.8866 44.2494 25.6566 44.4794C25.4265 44.7095 25.2973 45.0215 25.2973 45.3469C25.2973 45.6722 25.4265 45.9843 25.6566 46.2143C25.8866 46.4444 26.1987 46.5737 26.524 46.5737H26.5695C26.8949 46.5737 27.2069 46.4444 27.437 46.2143C27.667 45.9843 27.7963 45.6722 27.7963 45.3469C27.7963 45.0215 27.667 44.7095 27.437 44.4794C27.2069 44.2494 26.8949 44.1201 26.5695 44.1201ZM30.3769 44.3272C30.1752 44.3272 29.978 44.387 29.8104 44.4991C29.6427 44.6111 29.512 44.7704 29.4348 44.9567C29.3576 45.143 29.3374 45.348 29.3768 45.5458C29.4161 45.7436 29.5132 45.9253 29.6558 46.0679C29.7984 46.2105 29.9801 46.3076 30.1779 46.347C30.3757 46.3863 30.5808 46.3661 30.7671 46.289C30.9534 46.2118 31.1127 46.0811 31.2247 45.9134C31.3367 45.7457 31.3966 45.5486 31.3966 45.3469C31.3966 45.0765 31.2891 44.8171 31.0979 44.6259C30.9067 44.4346 30.6473 44.3272 30.3769 44.3272V44.3272ZM24.6823 48.4405C24.5091 48.4405 24.3398 48.4918 24.1958 48.5881C24.0519 48.6843 23.9397 48.8211 23.8735 48.9812C23.8072 49.1412 23.79 49.3173 23.8239 49.4872C23.8578 49.657 23.9413 49.813 24.0639 49.9353C24.1865 50.0577 24.3426 50.1409 24.5125 50.1745C24.6824 50.2081 24.8585 50.1906 25.0184 50.1241C25.1783 50.0576 25.3149 49.9452 25.4109 49.801C25.5069 49.6568 25.558 49.4874 25.5577 49.3142C25.5577 49.1994 25.535 49.0856 25.491 48.9795C25.447 48.8734 25.3825 48.777 25.3012 48.6958C25.2199 48.6147 25.1234 48.5503 25.0172 48.5065C24.911 48.4627 24.7972 48.4403 24.6823 48.4405V48.4405ZM28.4097 48.4405C28.2365 48.4405 28.0672 48.4918 27.9232 48.5881C27.7792 48.6843 27.667 48.8211 27.6008 48.9812C27.5346 49.1412 27.5173 49.3173 27.5512 49.4872C27.5851 49.657 27.6687 49.813 27.7912 49.9353C27.9138 50.0577 28.0699 50.1409 28.2399 50.1745C28.4098 50.2081 28.5858 50.1906 28.7457 50.1241C28.9057 50.0576 29.0423 49.9452 29.1383 49.801C29.2343 49.6568 29.2853 49.4874 29.285 49.3142C29.285 49.1994 29.2624 49.0856 29.2184 48.9795C29.1743 48.8734 29.1098 48.777 29.0285 48.6958C28.9472 48.6147 28.8507 48.5503 28.7445 48.5065C28.6383 48.4627 28.5245 48.4403 28.4097 48.4405V48.4405ZM23.4932 35.263C23.4935 34.8853 23.3818 34.5161 23.1722 34.2019C22.9626 33.8877 22.6646 33.6428 22.3158 33.4981C21.9669 33.3533 21.583 33.3153 21.2126 33.3888C20.8421 33.4623 20.5018 33.644 20.2346 33.9109C19.9675 34.1778 19.7855 34.518 19.7117 34.8884C19.6379 35.2588 19.6756 35.6427 19.8201 35.9917C19.9645 36.3406 20.2092 36.6389 20.5232 36.8487C20.8372 37.0586 21.2064 37.1706 21.5841 37.1706C21.8356 37.1714 22.0848 37.1226 22.3173 37.0268C22.5499 36.931 22.7612 36.7902 22.9392 36.6125C23.1172 36.4348 23.2583 36.2237 23.3545 35.9913C23.4506 35.7589 23.4999 35.5098 23.4995 35.2583L23.4932 35.263ZM17.7312 33.9311C17.4674 33.9311 17.2096 34.0094 16.9902 34.156C16.7709 34.3026 16.6 34.5109 16.4991 34.7547C16.3983 34.9984 16.372 35.2666 16.4235 35.5253C16.4751 35.784 16.6023 36.0216 16.7889 36.208C16.9755 36.3944 17.2133 36.5213 17.472 36.5726C17.7308 36.6238 17.999 36.5972 18.2426 36.4961C18.4862 36.3949 18.6944 36.2237 18.8407 36.0042C18.987 35.7848 19.065 35.5268 19.0647 35.263C19.0651 35.0876 19.0309 34.9139 18.9641 34.7518C18.8972 34.5896 18.7991 34.4423 18.6752 34.3181C18.5514 34.1939 18.4042 34.0954 18.2422 34.0282C18.0802 33.961 17.9066 33.9264 17.7312 33.9264V33.9311ZM26.5162 37.373H26.5397C27.7053 37.3008 28.6277 36.3862 28.6277 35.2646C28.6277 34.1429 27.7053 33.2252 26.5397 33.1578H26.4927C25.3271 33.2299 24.4047 34.1429 24.4047 35.2646C24.4047 36.3862 25.3271 37.3039 26.4927 37.373H26.5162ZM33.4187 35.263C33.4187 34.8857 33.3068 34.5169 33.0972 34.2032C32.8876 33.8895 32.5896 33.645 32.2411 33.5006C31.8925 33.3562 31.509 33.3185 31.1389 33.3921C30.7689 33.4657 30.429 33.6474 30.1622 33.9141C29.8954 34.1809 29.7137 34.5208 29.6401 34.8909C29.5665 35.2609 29.6043 35.6444 29.7487 35.993C29.8931 36.3416 30.1376 36.6395 30.4513 36.8491C30.765 37.0587 31.1338 37.1706 31.5111 37.1706C32.0171 37.1694 32.502 36.9672 32.8591 36.6086C33.2162 36.2501 33.4164 35.7644 33.4155 35.2583L33.4187 35.263ZM35.3639 33.9311C35.1001 33.9311 34.8422 34.0094 34.6229 34.156C34.4036 34.3026 34.2327 34.5109 34.1318 34.7547C34.0309 34.9984 34.0046 35.2666 34.0562 35.5253C34.1078 35.784 34.2349 36.0216 34.4216 36.208C34.6082 36.3944 34.846 36.5213 35.1047 36.5726C35.3635 36.6238 35.6316 36.5972 35.8753 36.4961C36.1189 36.3949 36.327 36.2237 36.4734 36.0042C36.6197 35.7848 36.6976 35.5268 36.6973 35.263C36.698 35.0873 36.6638 34.9132 36.5969 34.7508C36.5299 34.5883 36.4315 34.4408 36.3072 34.3165C36.183 34.1923 36.0354 34.0939 35.873 34.0269C35.7105 33.96 35.5365 33.9258 35.3608 33.9264L35.3639 33.9311ZM24.0988 32.4502C24.5176 32.4496 24.9269 32.3248 25.2748 32.0916C25.6227 31.8584 25.8937 31.5272 26.0534 31.14C26.2131 30.7528 26.2544 30.3269 26.1721 29.9162C26.0898 29.5055 25.8875 29.1285 25.5909 28.8327C25.2943 28.537 24.9166 28.3358 24.5057 28.2547C24.0948 28.1736 23.669 28.2162 23.2823 28.3771C22.8955 28.5379 22.5652 28.8098 22.333 29.1585C22.1008 29.5071 21.9772 29.9167 21.9778 30.3356C21.9799 30.8959 22.2039 31.4326 22.6009 31.828C22.9978 32.2235 23.5353 32.4455 24.0956 32.4455L24.0988 32.4502ZM19.1007 32.24C19.478 32.2394 19.8467 32.1269 20.16 31.9168C20.4734 31.7067 20.7174 31.4084 20.8612 31.0595C21.005 30.7107 21.0421 30.3271 20.9679 29.9572C20.8937 29.5873 20.7115 29.2477 20.4442 28.9814C20.177 28.715 19.8368 28.5339 19.4667 28.4609C19.0965 28.3879 18.713 28.4263 18.3647 28.5713C18.0164 28.7162 17.7188 28.9612 17.5098 29.2753C17.3007 29.5893 17.1894 29.9583 17.19 30.3356C17.1917 30.8403 17.3934 31.3237 17.751 31.6798C18.1086 32.036 18.5929 32.2357 19.0976 32.2353L19.1007 32.24ZM15.2777 29.0304C15.0207 29.0301 14.7693 29.106 14.5555 29.2486C14.3416 29.3912 14.1749 29.5941 14.0764 29.8315C13.9779 30.0689 13.952 30.3302 14.0021 30.5823C14.0522 30.8344 14.1759 31.066 14.3577 31.2478C14.5394 31.4295 14.771 31.5533 15.0231 31.6033C15.2752 31.6534 15.5365 31.6276 15.7739 31.5291C16.0114 31.4305 16.2142 31.2638 16.3568 31.05C16.4994 30.8361 16.5754 30.5848 16.5751 30.3277C16.5751 29.9837 16.4384 29.6537 16.1951 29.4104C15.9518 29.1671 15.6218 29.0304 15.2777 29.0304ZM31.1142 30.3356C31.1142 29.9167 30.99 29.5073 30.7573 29.159C30.5246 28.8107 30.1938 28.5393 29.8068 28.379C29.4198 28.2187 28.994 28.1768 28.5832 28.2585C28.1724 28.3402 27.795 28.5419 27.4989 28.8381C27.2027 29.1342 27.001 29.5116 26.9193 29.9224C26.8375 30.3332 26.8795 30.7591 27.0398 31.146C27.2001 31.533 27.4715 31.8638 27.8198 32.0965C28.1681 32.3292 28.5775 32.4534 28.9964 32.4534C29.2745 32.4536 29.55 32.399 29.8071 32.2926C30.0641 32.1862 30.2976 32.0303 30.4943 31.8336C30.691 31.6369 30.847 31.4033 30.9534 31.1463C31.0597 30.8892 31.1144 30.6138 31.1142 30.3356V30.3356ZM33.9944 32.2432C34.3717 32.2432 34.7405 32.1313 35.0542 31.9217C35.3679 31.7121 35.6124 31.4142 35.7568 31.0656C35.9012 30.717 35.9389 30.3335 35.8653 29.9634C35.7917 29.5934 35.61 29.2535 35.3433 28.9867C35.0765 28.7199 34.7366 28.5382 34.3665 28.4646C33.9965 28.391 33.613 28.4288 33.2644 28.5732C32.9158 28.7176 32.6179 28.9621 32.4083 29.2758C32.1987 29.5895 32.0868 29.9583 32.0868 30.3356C32.0885 30.8403 32.2902 31.3237 32.6478 31.6798C33.0054 32.036 33.4897 32.2357 33.9944 32.2353V32.2432ZM37.8143 29.0382C37.5573 29.0382 37.3061 29.1144 37.0925 29.2572C36.8788 29.4 36.7124 29.603 36.6141 29.8404C36.5158 30.0779 36.4902 30.3391 36.5404 30.5911C36.5907 30.8431 36.7145 31.0746 36.8964 31.2562C37.0782 31.4378 37.3098 31.5614 37.5618 31.6113C37.8139 31.6612 38.0751 31.6353 38.3124 31.5367C38.5498 31.4382 38.7525 31.2715 38.8951 31.0576C39.0376 30.8438 39.1135 30.5925 39.1132 30.3356C39.1142 30.1644 39.0814 29.9947 39.0166 29.8363C38.9517 29.6779 38.8562 29.5339 38.7354 29.4126C38.6147 29.2913 38.4712 29.195 38.3131 29.1294C38.155 29.0638 37.9854 29.0302 37.8143 29.0304V29.0382ZM23.9764 24.6457C23.9767 24.2267 23.8527 23.8171 23.6201 23.4686C23.3875 23.1201 23.0568 22.8484 22.6698 22.6879C22.2827 22.5274 21.8568 22.4853 21.4458 22.567C21.0349 22.6487 20.6574 22.8504 20.3611 23.1467C20.0648 23.4429 19.8631 23.8204 19.7814 24.2314C19.6997 24.6424 19.7418 25.0683 19.9023 25.4554C20.0628 25.8424 20.3345 26.1731 20.683 26.4057C21.0315 26.6383 21.4412 26.7623 21.8602 26.762C22.4213 26.7599 22.9587 26.5352 23.3543 26.1373C23.7499 25.7393 23.9714 25.2006 23.9701 24.6395L23.9764 24.6457ZM14.5639 24.6457C14.5639 25.023 14.6758 25.3918 14.8854 25.7055C15.095 26.0192 15.393 26.2638 15.7415 26.4081C16.0901 26.5525 16.4736 26.5903 16.8437 26.5167C17.2137 26.4431 17.5536 26.2614 17.8204 25.9946C18.0872 25.7278 18.2689 25.3879 18.3425 25.0179C18.4161 24.6479 18.3783 24.2643 18.2339 23.9157C18.0895 23.5672 17.845 23.2692 17.5313 23.0596C17.2176 22.85 16.8488 22.7382 16.4715 22.7382C16.221 22.7371 15.9726 22.7855 15.7408 22.8805C15.509 22.9756 15.2981 23.1154 15.1204 23.292C14.9426 23.4686 14.8014 23.6785 14.7048 23.9097C14.6083 24.1409 14.5583 24.3889 14.5577 24.6395L14.5639 24.6457ZM12.5246 23.3468C12.2677 23.3468 12.0165 23.423 11.8029 23.5657C11.5893 23.7085 11.4228 23.9113 11.3245 24.1487C11.2262 24.386 11.2005 24.6472 11.2506 24.8992C11.3007 25.1511 11.4244 25.3826 11.6061 25.5642C11.7877 25.7459 12.0192 25.8696 12.2712 25.9197C12.5231 25.9698 12.7843 25.9441 13.0216 25.8458C13.259 25.7475 13.4619 25.581 13.6046 25.3674C13.7473 25.1538 13.8235 24.9026 13.8235 24.6457C13.8243 24.4741 13.7911 24.304 13.7258 24.1453C13.6605 23.9866 13.5644 23.8423 13.4431 23.721C13.3217 23.5996 13.1775 23.5035 13.0187 23.4382C12.86 23.3729 12.6899 23.3397 12.5183 23.3406L12.5246 23.3468ZM33.3575 24.6457C33.3578 24.2268 33.2338 23.8172 33.0013 23.4687C32.7688 23.1203 32.4382 22.8486 32.0512 22.688C31.6643 22.5275 31.2384 22.4853 30.8275 22.5669C30.4166 22.6484 30.0391 22.85 29.7427 23.1461C29.4464 23.4422 29.2445 23.8196 29.1627 24.2304C29.0808 24.6413 29.1227 25.0672 29.2829 25.4543C29.4432 25.8413 29.7146 26.1722 30.0629 26.405C30.4112 26.6377 30.8207 26.762 31.2397 26.762C31.8008 26.7599 32.3382 26.5352 32.7338 26.1373C33.1294 25.7393 33.3509 25.2006 33.3496 24.6395L33.3575 24.6457ZM38.5453 24.6457C38.5456 24.2681 38.4339 23.8988 38.2243 23.5846C38.0147 23.2705 37.7167 23.0255 37.3678 22.8808C37.019 22.7361 36.6351 22.698 36.2647 22.7715C35.8942 22.845 35.5539 23.0267 35.2867 23.2936C35.0196 23.5606 34.8376 23.9008 34.7638 24.2711C34.69 24.6415 34.7277 25.0255 34.8722 25.3744C35.0166 25.7234 35.2613 26.0216 35.5753 26.2315C35.8893 26.4413 36.2585 26.5533 36.6362 26.5533C36.8867 26.5525 37.1346 26.5024 37.3657 26.4057C37.5968 26.3091 37.8066 26.1679 37.9832 25.9902C38.1597 25.8125 38.2996 25.6017 38.3947 25.37C38.4898 25.1382 38.5383 24.89 38.5375 24.6395L38.5453 24.6457ZM40.5847 23.3468C40.3277 23.3465 40.0764 23.4224 39.8626 23.565C39.6488 23.7075 39.4821 23.9103 39.3835 24.1476C39.285 24.3849 39.259 24.6461 39.309 24.8982C39.3589 25.1503 39.4825 25.3819 39.6641 25.5637C39.8457 25.7455 40.0771 25.8693 40.3291 25.9196C40.5811 25.9698 40.8424 25.9442 41.0798 25.8459C41.3173 25.7477 41.5202 25.5812 41.663 25.3676C41.8058 25.1539 41.882 24.9027 41.882 24.6457C41.8829 24.474 41.8496 24.3038 41.7842 24.1449C41.7188 23.9861 41.6226 23.8418 41.5011 23.7204C41.3795 23.599 41.2351 23.503 41.0762 23.4378C40.9173 23.3726 40.747 23.3395 40.5753 23.3406L40.5847 23.3468ZM24.9067 24.6457C24.9079 24.9651 25.0039 25.277 25.1824 25.5418C25.361 25.8067 25.6141 26.0126 25.9097 26.1335C26.2053 26.2544 26.5302 26.285 26.8431 26.2212C27.1561 26.1574 27.4431 26.0023 27.6679 25.7753C27.8926 25.5484 28.045 25.2599 28.1057 24.9463C28.1664 24.6327 28.1327 24.3082 28.0089 24.0137C27.8851 23.7193 27.6768 23.4682 27.4102 23.2923C27.1436 23.1163 26.8309 23.0234 26.5115 23.0252C26.0834 23.0252 25.6728 23.1953 25.37 23.498C25.0673 23.8008 24.8972 24.2113 24.8972 24.6395L24.9067 24.6457ZM17.4755 19.13C17.3304 19.5232 17.3051 19.9505 17.403 20.358C17.5009 20.7655 17.7174 21.1348 18.0252 21.4192C18.3331 21.7035 18.7184 21.8902 19.1323 21.9555C19.5463 22.0207 19.9703 21.9618 20.3507 21.7859C20.7311 21.6101 21.0508 21.3254 21.2694 20.9678C21.4879 20.6102 21.5954 20.1958 21.5783 19.7771C21.5612 19.3584 21.4202 18.9541 21.1733 18.6155C20.9263 18.277 20.5845 18.0193 20.191 17.875C19.6645 17.6816 19.0827 17.7052 18.5735 17.9405C18.0643 18.1758 17.6694 18.6037 17.4755 19.13V19.13ZM22.621 19.301C22.5113 19.6015 22.4932 19.9278 22.569 20.2386C22.6447 20.5494 22.8109 20.8307 23.0466 21.0471C23.2822 21.2634 23.5767 21.405 23.8928 21.4539C24.209 21.5029 24.5325 21.457 24.8225 21.3221C25.1126 21.1871 25.3561 20.9692 25.5223 20.6959C25.6885 20.4226 25.7699 20.1061 25.7562 19.7865C25.7426 19.4669 25.6344 19.1585 25.4455 18.9004C25.2566 18.6423 24.9954 18.4459 24.6949 18.3363C24.2919 18.1892 23.8471 18.2082 23.4581 18.3891C23.0692 18.5701 22.7681 18.8981 22.621 19.301V19.301ZM15.8848 19.8548C15.8851 19.4771 15.7734 19.1077 15.5637 18.7935C15.3541 18.4793 15.0559 18.2344 14.707 18.0897C14.3581 17.945 13.9741 17.9071 13.6036 17.9807C13.2331 18.0543 12.8928 18.2362 12.6257 18.5033C12.3586 18.7703 12.1767 19.1107 12.1031 19.4812C12.0295 19.8516 12.0674 20.2356 12.2121 20.5846C12.3568 20.9335 12.6018 21.2316 12.916 21.4413C13.2302 21.651 13.5995 21.7627 13.9772 21.7624C14.483 21.762 14.968 21.5609 15.3256 21.2032C15.6833 20.8456 15.8844 20.3606 15.8848 19.8548V19.8548ZM10.1134 18.5575C9.85678 18.559 9.60636 18.6365 9.39375 18.7803C9.18115 18.924 9.01588 19.1275 8.91882 19.3651C8.82176 19.6026 8.79724 19.8636 8.84837 20.1151C8.8995 20.3666 9.02398 20.5973 9.2061 20.7781C9.38822 20.9589 9.61983 21.0818 9.87168 21.1311C10.1235 21.1804 10.3843 21.154 10.6212 21.0552C10.8581 20.9564 11.0604 20.7897 11.2026 20.576C11.3448 20.3624 11.4205 20.1114 11.4202 19.8548C11.4202 19.6836 11.3863 19.5142 11.3205 19.3561C11.2547 19.1981 11.1583 19.0547 11.0369 18.9341C10.9154 18.8135 10.7713 18.7181 10.6128 18.6535C10.4543 18.5888 10.2846 18.5562 10.1134 18.5575V18.5575ZM34.3536 21.8518C34.7466 21.708 35.0881 21.451 35.335 21.1132C35.5819 20.7754 35.7231 20.3719 35.7408 19.9539C35.7585 19.5358 35.6519 19.1219 35.4344 18.7644C35.2169 18.407 34.8983 18.122 34.5188 17.9455C34.1394 17.7691 33.7162 17.7091 33.3027 17.7731C32.8892 17.8371 32.504 18.0223 32.1957 18.3052C31.8874 18.5881 31.6698 18.956 31.5706 19.3625C31.4714 19.769 31.4949 20.1958 31.6381 20.589C31.832 21.1153 32.2269 21.5432 32.7361 21.7785C33.2453 22.0138 33.8271 22.0374 34.3536 21.844V21.8518ZM29.5062 21.3812C29.8067 21.2715 30.0679 21.0752 30.2569 20.817C30.4458 20.5589 30.5539 20.2505 30.5676 19.9309C30.5812 19.6113 30.4998 19.2949 30.3336 19.0216C30.1674 18.7482 29.9239 18.5303 29.6339 18.3954C29.3438 18.2605 29.0203 18.2146 28.7042 18.2635C28.3881 18.3125 28.0935 18.4541 27.8579 18.6704C27.6223 18.8867 27.456 19.1681 27.3803 19.4789C27.3045 19.7896 27.3227 20.1159 27.4323 20.4164C27.5803 20.8185 27.8819 21.1453 28.2708 21.3251C28.6597 21.5048 29.1041 21.5227 29.5062 21.3749V21.3812ZM41.0239 19.8611C41.0242 19.4833 40.9125 19.114 40.7028 18.7998C40.4932 18.4856 40.195 18.2407 39.8461 18.096C39.4972 17.9513 39.1132 17.9133 38.7427 17.987C38.3722 18.0606 38.0319 18.2424 37.7648 18.5095C37.4977 18.7766 37.3158 19.1169 37.2422 19.4874C37.1686 19.8579 37.2065 20.2419 37.3512 20.5908C37.4959 20.9398 37.7409 21.2379 38.0551 21.4476C38.3693 21.6572 38.7386 21.769 39.1163 21.7687C39.3673 21.7685 39.6158 21.7188 39.8475 21.6224C40.0793 21.5261 40.2898 21.385 40.467 21.2073C40.6441 21.0295 40.7845 20.8186 40.8801 20.5865C40.9757 20.3544 41.0245 20.1058 41.0239 19.8548V19.8611ZM42.9786 18.5637C42.7216 18.5634 42.4702 18.6394 42.2564 18.782C42.0425 18.9246 41.8758 19.1274 41.7773 19.3648C41.6788 19.6023 41.6529 19.8636 41.703 20.1157C41.753 20.3678 41.8768 20.5994 42.0585 20.7811C42.2403 20.9629 42.4719 21.0866 42.724 21.1367C42.9761 21.1868 43.2374 21.1609 43.4748 21.0624C43.7122 20.9639 43.9151 20.7972 44.0577 20.5833C44.2003 20.3695 44.2762 20.1181 44.2759 19.8611C44.2768 19.6902 44.2438 19.5208 44.179 19.3627C44.1142 19.2045 44.0187 19.0608 43.8982 18.9397C43.7776 18.8185 43.6343 18.7224 43.4765 18.6568C43.3187 18.5912 43.1495 18.5574 42.9786 18.5575V18.5637ZM17.2512 12.6574C16.8581 12.5123 16.4307 12.487 16.0232 12.5849C15.6157 12.6827 15.2464 12.8993 14.9621 13.2071C14.6777 13.515 14.4911 13.9003 14.4258 14.3142C14.3605 14.7282 14.4195 15.1522 14.5953 15.5326C14.7711 15.913 15.0558 16.2327 15.4134 16.4512C15.771 16.6698 16.1854 16.7773 16.6041 16.7602C17.0229 16.7431 17.4271 16.6021 17.7657 16.3552C18.1043 16.1082 18.362 15.7664 18.5062 15.3729C18.6028 15.1116 18.6469 14.8338 18.636 14.5555C18.625 14.2771 18.5592 14.0036 18.4423 13.7507C18.3254 13.4979 18.1598 13.2706 17.9548 13.0819C17.7499 12.8932 17.5097 12.7468 17.2481 12.6511L17.2512 12.6574ZM20.933 16.1667C21.2335 16.2764 21.5598 16.2945 21.8706 16.2187C22.1814 16.143 22.4627 15.9768 22.679 15.7411C22.8954 15.5055 23.037 15.211 23.0859 14.8948C23.1349 14.5787 23.089 14.2552 22.954 13.9652C22.8191 13.6751 22.6012 13.4316 22.3279 13.2654C22.0546 13.0992 21.7381 13.0178 21.4185 13.0315C21.0989 13.0451 20.7905 13.1532 20.5324 13.3422C20.2743 13.5311 20.0779 13.7923 19.9683 14.0928C19.823 14.4946 19.8425 14.9375 20.0227 15.3249C20.2029 15.7123 20.529 16.0127 20.9299 16.1604L20.933 16.1667ZM11.4892 12.7327C11.1123 12.733 10.744 12.845 10.4306 13.0544C10.1173 13.2639 9.87306 13.5614 9.72869 13.9096C9.58432 14.2577 9.54631 14.6408 9.61946 15.0105C9.69261 15.3803 9.87364 15.72 10.1397 15.987C10.4058 16.2539 10.7449 16.436 11.1144 16.5104C11.4839 16.5848 11.8671 16.548 12.2157 16.4048C12.5643 16.2615 12.8627 16.0183 13.0732 15.7056C13.2837 15.393 13.3968 15.025 13.3984 14.6481C13.3994 14.3968 13.3508 14.1478 13.2553 13.9154C13.1598 13.6829 13.0193 13.4716 12.8419 13.2936C12.6645 13.1157 12.4536 12.9745 12.2215 12.8782C11.9894 12.7819 11.7405 12.7325 11.4892 12.7327V12.7327ZM7.52498 13.3429C7.26828 13.3426 7.01724 13.4184 6.80357 13.5607C6.5899 13.7029 6.42316 13.9053 6.32443 14.1423C6.2257 14.3792 6.19939 14.6401 6.24882 14.892C6.29826 15.1439 6.42122 15.3755 6.60219 15.5576C6.78315 15.7396 7.01401 15.864 7.2656 15.9149C7.5172 15.9659 7.77825 15.9412 8.01579 15.8439C8.25333 15.7465 8.45672 15.581 8.60027 15.3682C8.74382 15.1554 8.82109 14.9048 8.82233 14.6481C8.82316 14.4772 8.79022 14.3077 8.72541 14.1495C8.6606 13.9913 8.5652 13.8474 8.44467 13.7262C8.32413 13.6049 8.18085 13.5086 8.02303 13.4429C7.86521 13.3771 7.69595 13.3431 7.52498 13.3429ZM38.5594 13.9155C38.4159 13.5224 38.159 13.1806 37.8213 12.9335C37.4835 12.6863 37.0801 12.5449 36.6619 12.527C36.2438 12.5091 35.8298 12.6156 35.4721 12.8331C35.1145 13.0505 34.8294 13.3691 34.6529 13.7485C34.4763 14.128 34.4162 14.5512 34.4802 14.9648C34.5442 15.3784 34.7294 15.7638 35.0123 16.0721C35.2953 16.3805 35.6633 16.598 36.0699 16.6972C36.4765 16.7964 36.9034 16.7729 37.2966 16.6295C37.5577 16.5342 37.7976 16.3885 38.0024 16.2005C38.2072 16.0126 38.373 15.7861 38.4902 15.5341C38.6075 15.2821 38.674 15.0094 38.6858 14.7317C38.6977 14.454 38.6548 14.1767 38.5594 13.9155V13.9155ZM32.1621 16.1604C32.4626 16.0507 32.7238 15.8544 32.9127 15.5963C33.1017 15.3381 33.2098 15.0298 33.2234 14.7102C33.2371 14.3906 33.1557 14.0741 32.9895 13.8008C32.8233 13.5274 32.5798 13.3095 32.2898 13.1746C31.9997 13.0397 31.6762 12.9938 31.3601 13.0427C31.0439 13.0917 30.7494 13.2333 30.5138 13.4496C30.2781 13.6659 30.1119 13.9473 30.0362 14.2581C29.9604 14.5689 29.9785 14.8951 30.0882 15.1956C30.1609 15.3953 30.2722 15.5786 30.4158 15.7352C30.5594 15.8918 30.7324 16.0185 30.9251 16.1081C31.1177 16.1977 31.3261 16.2485 31.5384 16.2575C31.7506 16.2664 31.9626 16.2334 32.1621 16.1604V16.1604ZM41.6028 12.7327C41.2258 12.7327 40.8573 12.8444 40.5438 13.0537C40.2303 13.2629 39.9858 13.5604 39.8412 13.9085C39.6966 14.2566 39.6583 14.6398 39.7313 15.0096C39.8043 15.3794 39.9852 15.7193 40.2512 15.9864C40.5172 16.2535 40.8563 16.4358 41.2259 16.5103C41.5954 16.5848 41.9787 16.5481 42.3274 16.4049C42.6761 16.2617 42.9745 16.0185 43.1851 15.7058C43.3956 15.3931 43.5088 15.0251 43.5104 14.6481C43.5116 14.3969 43.4632 14.1479 43.3679 13.9155C43.2725 13.683 43.1322 13.4717 42.9549 13.2937C42.7776 13.1157 42.5669 12.9745 42.3349 12.8782C42.1028 12.782 41.854 12.7325 41.6028 12.7327V12.7327ZM45.5686 13.3429C45.3122 13.3442 45.062 13.4213 44.8493 13.5645C44.6367 13.7077 44.4712 13.9106 44.3736 14.1477C44.2761 14.3848 44.2509 14.6454 44.3012 14.8968C44.3515 15.1482 44.4751 15.379 44.6564 15.5603C44.8377 15.7416 45.0685 15.8652 45.3199 15.9155C45.5713 15.9658 45.8319 15.9406 46.069 15.8431C46.3061 15.7456 46.5091 15.5801 46.6523 15.3674C46.7955 15.1548 46.8725 14.9045 46.8738 14.6481C46.8746 14.4765 46.8414 14.3064 46.7761 14.1477C46.7108 13.989 46.6147 13.8447 46.4933 13.7234C46.372 13.602 46.2278 13.5059 46.069 13.4406C45.9103 13.3753 45.7402 13.3421 45.5686 13.3429V13.3429ZM14.3114 10.6761C14.5543 10.6761 14.7918 10.604 14.9938 10.4691C15.1958 10.3341 15.3532 10.1423 15.4462 9.91782C15.5392 9.69337 15.5635 9.44639 15.5161 9.20812C15.4687 8.96985 15.3517 8.75098 15.1799 8.5792C15.0081 8.40741 14.7893 8.29043 14.551 8.24303C14.3127 8.19563 14.0658 8.21996 13.8413 8.31293C13.6169 8.4059 13.425 8.56334 13.29 8.76533C13.1551 8.96733 13.083 9.20481 13.083 9.44775C13.0824 9.60946 13.1137 9.76969 13.1752 9.91926C13.2366 10.0688 13.327 10.2048 13.4411 10.3194C13.5553 10.4339 13.6909 10.5248 13.8402 10.5868C13.9895 10.6489 14.1497 10.6808 14.3114 10.6808V10.6761ZM4.9695 8.22413C4.72656 8.22413 4.48907 8.29617 4.28708 8.43114C4.08508 8.56612 3.92764 8.75795 3.83467 8.9824C3.7417 9.20685 3.71738 9.45382 3.76477 9.6921C3.81217 9.93037 3.92915 10.1492 4.10094 10.321C4.27272 10.4928 4.49159 10.6098 4.72986 10.6572C4.96813 10.7046 5.21511 10.6803 5.43956 10.5873C5.664 10.4943 5.85584 10.3369 5.99081 10.1349C6.12578 9.93289 6.19782 9.6954 6.19782 9.45246C6.19741 9.12682 6.06786 8.81463 5.8376 8.58436C5.60733 8.3541 5.29514 8.22455 4.9695 8.22413V8.22413ZM9.63965 10.6808C9.88259 10.6808 10.1201 10.6087 10.3221 10.4738C10.5241 10.3388 10.6815 10.147 10.7745 9.92252C10.8674 9.69807 10.8918 9.4511 10.8444 9.21283C10.797 8.97455 10.68 8.75569 10.5082 8.5839C10.3364 8.41212 10.1176 8.29513 9.87928 8.24774C9.64101 8.20034 9.39403 8.22467 9.16959 8.31763C8.94514 8.4106 8.7533 8.56804 8.61833 8.77004C8.48336 8.97204 8.41132 9.20952 8.41132 9.45246C8.41111 9.61383 8.44274 9.77364 8.5044 9.92277C8.56606 10.0719 8.65653 10.2074 8.77063 10.3215C8.88473 10.4356 9.02022 10.5261 9.16934 10.5877C9.31846 10.6494 9.47828 10.681 9.63965 10.6808V10.6808ZM18.9815 10.6808C19.2245 10.6808 19.4619 10.6087 19.6639 10.4738C19.8659 10.3388 20.0234 10.147 20.1163 9.92252C20.2093 9.69807 20.2336 9.4511 20.1862 9.21283C20.1388 8.97455 20.0219 8.75569 19.8501 8.5839C19.6783 8.41212 19.4594 8.29513 19.2211 8.24774C18.9829 8.20034 18.7359 8.22467 18.5115 8.31763C18.287 8.4106 18.0952 8.56804 17.9602 8.77004C17.8252 8.97204 17.7532 9.20952 17.7532 9.45246C17.7532 9.77823 17.8826 10.0907 18.113 10.321C18.3433 10.5514 18.6557 10.6808 18.9815 10.6808V10.6808ZM37.5539 9.45246C37.5539 9.6954 37.6259 9.93289 37.7609 10.1349C37.8958 10.3369 38.0877 10.4943 38.3121 10.5873C38.5366 10.6803 38.7836 10.7046 39.0218 10.6572C39.2601 10.6098 39.479 10.4928 39.6508 10.321C39.8225 10.1492 39.9395 9.93037 39.9869 9.6921C40.0343 9.45382 40.01 9.20685 39.917 8.9824C39.8241 8.75795 39.6666 8.56612 39.4646 8.43114C39.2626 8.29617 39.0251 8.22413 38.7822 8.22413C38.6208 8.22393 38.461 8.25556 38.3119 8.31721C38.1628 8.37887 38.0273 8.46934 37.9132 8.58344C37.7991 8.69754 37.7086 8.83304 37.647 8.98216C37.5853 9.13128 37.5537 9.2911 37.5539 9.45246V9.45246ZM48.1288 8.22413C47.8858 8.22413 47.6483 8.29617 47.4463 8.43114C47.2443 8.56612 47.0869 8.75795 46.9939 8.9824C46.901 9.20685 46.8767 9.45382 46.924 9.6921C46.9714 9.93037 47.0884 10.1492 47.2602 10.321C47.432 10.4928 47.6509 10.6098 47.8891 10.6572C48.1274 10.7046 48.3744 10.6803 48.5988 10.5873C48.8233 10.4943 49.0151 10.3369 49.1501 10.1349C49.2851 9.93289 49.3571 9.6954 49.3571 9.45246C49.3567 9.12682 49.2271 8.81463 48.9969 8.58436C48.7666 8.3541 48.4544 8.22455 48.1288 8.22413V8.22413ZM42.2303 9.45246C42.2303 9.6954 42.3023 9.93289 42.4373 10.1349C42.5723 10.3369 42.7641 10.4943 42.9886 10.5873C43.213 10.6803 43.46 10.7046 43.6983 10.6572C43.9365 10.6098 44.1554 10.4928 44.3272 10.321C44.499 10.1492 44.6159 9.93037 44.6633 9.6921C44.7107 9.45382 44.6864 9.20685 44.5934 8.9824C44.5005 8.75795 44.343 8.56612 44.141 8.43114C43.939 8.29617 43.7016 8.22413 43.4586 8.22413C43.2967 8.2231 43.1362 8.25412 42.9864 8.3154C42.8365 8.37669 42.7003 8.46703 42.5855 8.58121C42.4708 8.6954 42.3797 8.83117 42.3177 8.9807C42.2556 9.13023 42.2238 9.29057 42.224 9.45246H42.2303ZM34.1168 10.6808C34.3597 10.6808 34.5972 10.6087 34.7992 10.4738C35.0012 10.3388 35.1586 10.147 35.2516 9.92252C35.3445 9.69807 35.3689 9.4511 35.3215 9.21283C35.2741 8.97455 35.1571 8.75569 34.9853 8.5839C34.8135 8.41212 34.5947 8.29513 34.3564 8.24774C34.1181 8.20034 33.8711 8.22467 33.6467 8.31763C33.4222 8.4106 33.2304 8.56804 33.0954 8.77004C32.9605 8.97204 32.8884 9.20952 32.8884 9.45246C32.888 9.77728 33.0164 10.089 33.2455 10.3193C33.4746 10.5495 33.7857 10.6795 34.1105 10.6808H34.1168ZM21.9543 40.0853C21.9543 40.5042 22.0785 40.9136 22.3112 41.2619C22.5439 41.6102 22.8747 41.8816 23.2616 42.0419C23.6486 42.2022 24.0744 42.2442 24.4853 42.1624C24.8961 42.0807 25.2734 41.879 25.5696 41.5828C25.8658 41.2867 26.0675 40.9093 26.1492 40.4985C26.2309 40.0877 26.189 39.6619 26.0287 39.2749C25.8684 38.8879 25.5969 38.5571 25.2487 38.3244C24.9004 38.0917 24.4909 37.9675 24.0721 37.9675C23.7939 37.9673 23.5184 38.022 23.2614 38.1283C23.0044 38.2347 22.7708 38.3907 22.5741 38.5874C22.3774 38.784 22.2214 39.0176 22.1151 39.2746C22.0087 39.5317 21.9541 39.8072 21.9543 40.0853ZM20.1189 38.7519C19.8551 38.7516 19.5971 38.8295 19.3776 38.9759C19.1581 39.1222 18.987 39.3303 18.8858 39.574C18.7846 39.8176 18.758 40.0857 18.8093 40.3445C18.8606 40.6033 18.9874 40.841 19.1739 41.0276C19.3603 41.2143 19.5979 41.3414 19.8566 41.393C20.1153 41.4446 20.3835 41.4183 20.6272 41.3174C20.8709 41.2165 21.0793 41.0456 21.2259 40.8263C21.3725 40.607 21.4507 40.3491 21.4507 40.0853C21.4507 39.7319 21.3104 39.393 21.0607 39.143C20.811 38.893 20.4722 38.7523 20.1189 38.7519V38.7519ZM29.0215 42.2031C29.4404 42.2031 29.8499 42.0789 30.1982 41.8461C30.5465 41.6133 30.818 41.2825 30.9782 40.8954C31.1385 40.5083 31.1803 40.0824 31.0985 39.6716C31.0166 39.2607 30.8148 38.8834 30.5184 38.5873C30.2221 38.2911 29.8446 38.0896 29.4337 38.008C29.0228 37.9265 28.5969 37.9686 28.2099 38.1292C27.823 38.2897 27.4923 38.5614 27.2598 38.9099C27.0273 39.2584 26.9034 39.668 26.9037 40.0869C26.9039 40.3648 26.9588 40.6399 27.0654 40.8966C27.1719 41.1533 27.328 41.3865 27.5246 41.5828C27.7213 41.7792 27.9547 41.9349 28.2115 42.0411C28.4683 42.1472 28.7436 42.2018 29.0215 42.2016V42.2031ZM32.9747 38.7519C32.7109 38.7516 32.453 38.8295 32.2335 38.9759C32.014 39.1222 31.8428 39.3303 31.7417 39.574C31.6405 39.8176 31.6139 40.0857 31.6651 40.3445C31.7164 40.6033 31.8433 40.841 32.0297 41.0276C32.2161 41.2143 32.4537 41.3414 32.7124 41.393C32.9711 41.4446 33.2393 41.4183 33.4831 41.3174C33.7268 41.2165 33.9351 41.0456 34.0817 40.8263C34.2283 40.607 34.3066 40.3491 34.3066 40.0853C34.3066 39.7319 34.1663 39.393 33.9166 39.143C33.6668 38.893 33.3281 38.7523 32.9747 38.7519V38.7519ZM2.84856 4.42307C2.70142 4.42307 2.55759 4.46672 2.43528 4.54849C2.31296 4.63027 2.21766 4.74649 2.16142 4.88246C2.10519 5.01842 2.09056 5.16801 2.11938 5.3123C2.14819 5.45658 2.21917 5.58907 2.32332 5.693C2.42747 5.79693 2.56011 5.86763 2.70445 5.89614C2.8488 5.92465 2.99836 5.9097 3.1342 5.85318C3.27005 5.79666 3.38607 5.70111 3.46759 5.57862C3.5491 5.45614 3.59245 5.31222 3.59214 5.16508C3.59214 5.06751 3.5729 4.97089 3.53551 4.88076C3.49812 4.79064 3.44332 4.70877 3.37425 4.63984C3.30519 4.57092 3.2232 4.5163 3.13299 4.4791C3.04279 4.4419 2.94613 4.42286 2.84856 4.42307ZM7.59871 5.90396C7.74501 5.88854 7.88346 5.83007 7.99652 5.73594C8.10958 5.64182 8.19218 5.51627 8.23387 5.37519C8.27556 5.2341 8.27446 5.08382 8.23072 4.94336C8.18697 4.8029 8.10254 4.67858 7.98812 4.58611C7.87369 4.49365 7.73441 4.43721 7.5879 4.42393C7.44138 4.41064 7.29422 4.44112 7.16503 4.5115C7.03585 4.58188 6.93044 4.689 6.86215 4.8193C6.79386 4.94961 6.76576 5.09724 6.7814 5.24352C6.80234 5.43942 6.90017 5.61901 7.05342 5.74283C7.20666 5.86666 7.40278 5.92461 7.59871 5.90396ZM12.1904 5.90396C12.3376 5.90427 12.4815 5.86093 12.604 5.77941C12.7265 5.69789 12.822 5.58187 12.8785 5.44602C12.935 5.31018 12.95 5.16062 12.9215 5.01628C12.893 4.87193 12.8223 4.73929 12.7183 4.63514C12.6144 4.53099 12.4819 4.46002 12.3376 4.4312C12.1934 4.40238 12.0438 4.41701 11.9078 4.47325C11.7718 4.52948 11.6556 4.62479 11.5738 4.7471C11.4921 4.86942 11.4484 5.01324 11.4484 5.16038C11.4478 5.25829 11.4665 5.35536 11.5035 5.44602C11.5405 5.53667 11.595 5.61913 11.664 5.68866C11.7329 5.75819 11.8149 5.81341 11.9053 5.85117C11.9956 5.88892 12.0925 5.90846 12.1904 5.90867V5.90396ZM16.8606 5.90396C17.0082 5.90583 17.1531 5.86369 17.2767 5.78292C17.4003 5.70215 17.4971 5.5864 17.5547 5.45042C17.6123 5.31445 17.6281 5.16441 17.6001 5.01942C17.5721 4.87444 17.5015 4.74107 17.3974 4.63633C17.2934 4.53158 17.1604 4.46019 17.0156 4.43126C16.8708 4.40233 16.7207 4.41717 16.5844 4.47389C16.448 4.53061 16.3317 4.62663 16.2501 4.74973C16.1685 4.87283 16.1255 5.01742 16.1264 5.16508C16.1264 5.36067 16.2034 5.5484 16.3409 5.68758C16.4783 5.82676 16.665 5.90619 16.8606 5.90867V5.90396ZM50.2434 4.41836C50.0962 4.41805 49.9523 4.46144 49.8297 4.54302C49.7072 4.62461 49.6117 4.74073 49.5552 4.87666C49.4987 5.0126 49.4839 5.16224 49.5125 5.30663C49.5411 5.45101 49.612 5.58365 49.7161 5.68774C49.8202 5.79182 49.9528 5.86268 50.0972 5.89132C50.2416 5.91996 50.3912 5.9051 50.5272 5.84863C50.6631 5.79215 50.7792 5.6966 50.8608 5.57408C50.9424 5.45156 50.9858 5.30758 50.9855 5.16038C50.9838 4.96453 50.9049 4.77724 50.766 4.63919C50.6271 4.50114 50.4393 4.42347 50.2434 4.42307V4.41836ZM45.4948 5.89926C45.6413 5.91501 45.7892 5.8869 45.9197 5.81847C46.0502 5.75005 46.1574 5.64441 46.2277 5.51495C46.2981 5.3855 46.3284 5.23806 46.3148 5.09136C46.3012 4.94465 46.2443 4.80529 46.1514 4.69095C46.0585 4.57662 45.9337 4.49247 45.7929 4.44917C45.652 4.40588 45.5015 4.4054 45.3604 4.4478C45.2193 4.49019 45.094 4.57355 45.0003 4.68729C44.9067 4.80103 44.8489 4.94003 44.8344 5.08665C44.8238 5.18374 44.8324 5.28197 44.8599 5.3757C44.8874 5.46943 44.9331 5.55679 44.9945 5.63276C45.0559 5.70873 45.1317 5.77181 45.2176 5.81835C45.3035 5.86489 45.3977 5.89399 45.4948 5.90396V5.89926ZM40.9016 5.89926C41.0487 5.89957 41.1926 5.85622 41.3151 5.7747C41.4376 5.69319 41.5331 5.57716 41.5897 5.44132C41.6462 5.30547 41.6611 5.15591 41.6326 5.01157C41.6041 4.86722 41.5334 4.73458 41.4295 4.63043C41.3256 4.52629 41.1931 4.45531 41.0488 4.42649C40.9045 4.39767 40.7549 4.41231 40.6189 4.46854C40.483 4.52477 40.3668 4.62008 40.285 4.74239C40.2032 4.86471 40.1596 5.00854 40.1596 5.15567C40.1583 5.25398 40.1766 5.35155 40.2133 5.44276C40.25 5.53396 40.3044 5.61698 40.3734 5.687C40.4424 5.75703 40.5246 5.81268 40.6153 5.85073C40.706 5.88877 40.8033 5.90847 40.9016 5.90867V5.89926ZM36.2314 5.89926C36.3785 5.89926 36.5222 5.85565 36.6445 5.77394C36.7668 5.69223 36.8621 5.5761 36.9184 5.44023C36.9747 5.30436 36.9894 5.15485 36.9607 5.0106C36.932 4.86636 36.8612 4.73387 36.7572 4.62988C36.6532 4.52588 36.5207 4.45507 36.3765 4.42637C36.2322 4.39768 36.0827 4.41241 35.9469 4.46869C35.811 4.52497 35.6949 4.62028 35.6132 4.74256C35.5314 4.86484 35.4878 5.0086 35.4878 5.15567C35.4866 5.25411 35.5049 5.35181 35.5417 5.44312C35.5785 5.53443 35.6331 5.61751 35.7023 5.68756C35.7714 5.75761 35.8538 5.81322 35.9447 5.85118C36.0355 5.88914 36.133 5.90868 36.2314 5.90867V5.89926ZM1.13235 1.00007C0.995211 1.00007 0.861152 1.04073 0.747126 1.11692C0.633099 1.19311 0.544227 1.30141 0.491746 1.42811C0.439265 1.55481 0.425534 1.69422 0.452288 1.82873C0.479043 1.96323 0.545081 2.08678 0.642053 2.18375C0.739024 2.28072 0.862574 2.34676 0.997077 2.37351C1.13158 2.40027 1.271 2.38654 1.3977 2.33406C1.5244 2.28158 1.63269 2.1927 1.70888 2.07868C1.78507 1.96465 1.82573 1.83059 1.82573 1.69345C1.82573 1.50956 1.75268 1.33319 1.62265 1.20316C1.49261 1.07312 1.31625 1.00007 1.13235 1.00007V1.00007ZM5.89349 2.38213C6.02945 2.36742 6.15801 2.31273 6.26291 2.22499C6.36781 2.13724 6.44435 2.02038 6.48287 1.88915C6.52138 1.75793 6.52013 1.61823 6.47929 1.48771C6.43844 1.35719 6.35983 1.24171 6.25338 1.15585C6.14693 1.06999 6.01742 1.0176 5.88121 1.00531C5.74501 0.993025 5.60821 1.02138 5.48812 1.0868C5.36802 1.15222 5.27 1.25177 5.20645 1.37287C5.14291 1.49397 5.11668 1.63118 5.13108 1.76718C5.15083 1.94975 5.24219 2.11702 5.38512 2.23231C5.52805 2.3476 5.71088 2.40148 5.89349 2.38213V2.38213ZM10.5087 2.38213C10.6459 2.38213 10.7799 2.34147 10.894 2.26527C11.008 2.18908 11.0969 2.08079 11.1493 1.95409C11.2018 1.82739 11.2155 1.68798 11.1888 1.55347C11.162 1.41897 11.096 1.29542 10.999 1.19845C10.9021 1.10148 10.7785 1.03544 10.644 1.00868C10.5095 0.98193 10.3701 0.995662 10.2434 1.04814C10.1167 1.10062 10.0084 1.1895 9.9322 1.30352C9.85601 1.41755 9.81535 1.55161 9.81535 1.68875C9.81473 1.7802 9.8322 1.87087 9.86677 1.95554C9.90134 2.04021 9.95231 2.1172 10.0168 2.18209C10.0812 2.24697 10.1579 2.29847 10.2423 2.33361C10.3267 2.36875 10.4173 2.38684 10.5087 2.38684V2.38213ZM15.1961 2.38213C15.3333 2.38213 15.4673 2.34147 15.5814 2.26527C15.6954 2.18908 15.7843 2.08079 15.8367 1.95409C15.8892 1.82739 15.903 1.68798 15.8762 1.55347C15.8494 1.41897 15.7834 1.29542 15.6864 1.19845C15.5895 1.10148 15.4659 1.03544 15.3314 1.00868C15.1969 0.98193 15.0575 0.995662 14.9308 1.04814C14.8041 1.10062 14.6958 1.1895 14.6196 1.30352C14.5434 1.41755 14.5028 1.55161 14.5028 1.68875C14.5021 1.7802 14.5196 1.87087 14.5542 1.95554C14.5887 2.04021 14.6397 2.1172 14.7042 2.18209C14.7686 2.24697 14.8453 2.29847 14.9297 2.33361C15.0141 2.36875 15.1047 2.38684 15.1961 2.38684V2.38213ZM51.9596 1.00007C51.8225 1.00007 51.6884 1.04073 51.5744 1.11692C51.4604 1.19311 51.3715 1.30141 51.319 1.42811C51.2666 1.55481 51.2528 1.69422 51.2796 1.82873C51.3063 1.96323 51.3724 2.08678 51.4693 2.18375C51.5663 2.28072 51.6899 2.34676 51.8244 2.37351C51.9589 2.40027 52.0983 2.38654 52.225 2.33406C52.3517 2.28158 52.46 2.1927 52.5362 2.07868C52.6124 1.96465 52.653 1.83059 52.653 1.69345C52.6532 1.60234 52.6354 1.51208 52.6007 1.42786C52.5659 1.34364 52.5148 1.26712 52.4504 1.20269C52.386 1.13827 52.3094 1.0872 52.2252 1.05243C52.141 1.01765 52.0508 0.999861 51.9596 1.00007V1.00007ZM47.1985 2.38213C47.3353 2.39708 47.4734 2.37102 47.5953 2.30725C47.7172 2.24348 47.8173 2.14489 47.883 2.02403C47.9488 1.90316 47.977 1.76549 47.9643 1.62851C47.9515 1.49153 47.8983 1.36145 47.8114 1.25481C47.7244 1.14817 47.6078 1.06979 47.4762 1.02965C47.3446 0.989503 47.2041 0.989407 47.0724 1.02937C46.9408 1.06934 46.824 1.14755 46.737 1.25408C46.6499 1.3606 46.5965 1.49061 46.5836 1.62757C46.566 1.80898 46.6207 1.99001 46.7359 2.1313C46.851 2.27259 47.0173 2.36273 47.1985 2.38213V2.38213ZM42.5833 2.38213C42.7205 2.38244 42.8547 2.34204 42.9689 2.26604C43.0831 2.19004 43.1723 2.08185 43.225 1.95518C43.2777 1.82851 43.2917 1.68904 43.2651 1.55444C43.2385 1.41983 43.1726 1.29614 43.0757 1.19901C42.9788 1.10188 42.8552 1.03568 42.7207 1.0088C42.5861 0.98192 42.4466 0.995559 42.3198 1.04799C42.1931 1.10043 42.0847 1.1893 42.0084 1.30336C41.9322 1.41742 41.8914 1.55154 41.8914 1.68875C41.8908 1.78007 41.9083 1.87061 41.9427 1.95518C41.9772 2.03974 42.028 2.11667 42.0923 2.18153C42.1566 2.2464 42.2331 2.29793 42.3173 2.33316C42.4016 2.36839 42.4919 2.38663 42.5833 2.38684V2.38213ZM37.8959 2.38213C38.033 2.38213 38.1671 2.34147 38.2811 2.26527C38.3951 2.18908 38.484 2.08079 38.5365 1.95409C38.5889 1.82739 38.6027 1.68798 38.5759 1.55347C38.5492 1.41897 38.4831 1.29542 38.3862 1.19845C38.2892 1.10148 38.1656 1.03544 38.0311 1.00868C37.8966 0.98193 37.7572 0.995662 37.6305 1.04814C37.5038 1.10062 37.3955 1.1895 37.3193 1.30352C37.2431 1.41755 37.2025 1.55161 37.2025 1.68875C37.2019 1.7802 37.2193 1.87087 37.2539 1.95554C37.2885 2.04021 37.3394 2.1172 37.4039 2.18209C37.4683 2.24697 37.545 2.29847 37.6294 2.33361C37.7139 2.36875 37.8044 2.38684 37.8959 2.38684V2.38213Z" fill="url(#paint0_linear_555_445)"/>
<defs>
<linearGradient id="paint0_linear_555_445" x1="26.546" y1="-0.920075" x2="26.546" y2="50.9504" gradientUnits="userSpaceOnUse">
<stop stop-color="#17A0DB"/>
<stop offset="0.13" stop-color="#179CD6"/>
<stop offset="0.28" stop-color="#168FC7"/>
<stop offset="0.45" stop-color="#167BAE"/>
<stop offset="0.64" stop-color="#155E8B"/>
<stop offset="0.82" stop-color="#133A5F"/>
<stop offset="1" stop-color="#12132F"/>
</linearGradient>
</defs>
</svg>
